<svg width="40" height="40" viewBox="0 0 40 40" fill="none" xmlns="http://www.w3.org/2000/svg">
<g id="icon/achivement/active" opacity="0.87">
<path id="Vector" d="M19.9438 1.02827H30.7808C30.7808 1.02827 33.0334 0.847806 33.1552 2.54341C33.277 4.239 33.1552 14.2818 33.1552 14.2818C33.1552 14.2818 33.0334 22.0428 25.7276 25.7973C25.7276 25.7973 21.3441 28.4618 15.743 26.4029C15.743 26.4029 10.8725 24.7073 8.68071 20.8317C6.48897 16.956 6.85426 12.4748 6.85426 12.4748L6.84086 6.74244L6.83234 2.92855C6.83234 2.92855 6.49993 1.0755 8.62592 1.02221C10.7507 0.96892 19.9438 1.02827 19.9438 1.02827Z" stroke="#003B22" stroke-width="2" stroke-miterlimit="10"/>
<path id="Vector_2" d="M7.58498 21.3161C7.58498 21.3161 2.10561 21.9217 1.00974 15.866V8.62697C1.00974 8.62697 0.766214 6.7824 2.71443 6.7824C4.66265 6.7824 6.841 6.74243 6.841 6.74243L6.813 13.4073C6.813 13.4073 7.09792 18.7727 8.68085 20.8316C8.68085 20.8316 8.1938 21.3161 7.58498 21.3161Z" stroke="#003B22" stroke-width="2" stroke-miterlimit="10"/>
<path id="Vector_3" d="M32.4152 21.0739C32.4152 21.0739 37.8946 21.6795 38.9905 15.6238V8.38477C38.9905 8.38477 39.234 6.5402 37.2858 6.5402C35.3376 6.5402 33.1592 6.50023 33.1592 6.50023L33.1872 13.1651C33.1872 13.1651 33.0338 18.1672 31.3291 20.5894C31.3291 20.5894 31.8064 21.0739 32.4152 21.0739Z" stroke="#003B22" stroke-width="2" stroke-miterlimit="10"/>
<path id="Vector_4" d="M19.9441 27.1829L20.0111 32.9152" stroke="#003B22" stroke-width="3.04442" stroke-miterlimit="10"/>
<path id="Vector_5" d="M16.2423 32.9443L25.5657 32.9152C26.1855 32.9152 26.8004 33.0666 27.3313 33.3839C27.9523 33.7546 28.5891 34.3977 28.65 35.4877V37.9051C28.65 37.9051 28.7718 39 27.0671 39C25.3624 39 20.0109 39 20.0109 39H15.0575H12.632C12.632 39 11.2378 38.8789 11.2378 37.5466C11.2378 36.2144 11.2378 34.8397 11.2378 34.8397C11.2378 34.8397 11.3596 32.9443 13.7948 32.9443C16.2301 32.9443 16.2423 32.9443 16.2423 32.9443Z" stroke="#003B22" stroke-width="2" stroke-miterlimit="10"/>
</g>
</svg>
