<svg width="45" height="28" viewBox="0 0 45 28" fill="none" xmlns="http://www.w3.org/2000/svg">
<g id="Large Icons/Articles">
<path id="Vector 28" d="M23.2669 4.49642V25.5556M23.2669 4.49642C28.9705 2.13444 32.3999 1.10288 38.8812 1.60853C39.4013 1.64911 39.8002 2.08687 39.8002 2.60858V21.4406C39.8002 22.1025 39.1742 22.5848 38.5283 22.4404C31.8855 20.9548 28.5453 22.2084 23.2669 25.5556M23.2669 4.49642C17.3893 1.1644 13.7472 0.304226 7.01749 1.53226C6.54263 1.61891 6.2002 2.03609 6.2002 2.51879V21.4978C6.2002 22.1415 6.79434 22.6204 7.42702 22.5016C13.9172 21.2831 17.5434 22.0373 23.2669 25.5556" stroke="#005435" stroke-width="2"/>
<path id="Vector 29" d="M5.36 3.88889H3.01228C2.45321 3.88889 2 4.34211 2 4.90117V25.5064C2 26.2221 2.72307 26.7123 3.39626 26.4692C10.1856 24.0176 15.9319 23.8544 22.16 24.8333" stroke="#005435" stroke-width="2.02456"/>
<path id="Vector 30" d="M40.64 3.88889H42.9877C43.5468 3.88889 44 4.34211 44 4.90117V25.5064C44 26.2221 43.2769 26.7122 42.6043 26.4677C35.8638 24.0175 30.4867 23.8546 24.26 24.8333" stroke="#005435" stroke-width="2"/>
</g>
</svg>
