<svg width="21" height="21" viewBox="0 0 21 21" fill="none" xmlns="http://www.w3.org/2000/svg">
<path d="M7.54688 1.96875H13.4531C13.6336 1.96875 13.7812 2.11641 13.7812 2.29688V3.9375H7.21875V2.29688C7.21875 2.11641 7.36641 1.96875 7.54688 1.96875ZM5.25 2.29688V3.9375H2.625C1.17715 3.9375 0 5.11465 0 6.5625V10.5H7.875H13.125H21V6.5625C21 5.11465 19.8229 3.9375 18.375 3.9375H15.75V2.29688C15.75 1.02949 14.7205 0 13.4531 0H7.54688C6.27949 0 5.25 1.02949 5.25 2.29688ZM21 11.8125H13.125V13.125C13.125 13.851 12.5385 14.4375 11.8125 14.4375H9.1875C8.46152 14.4375 7.875 13.851 7.875 13.125V11.8125H0V17.0625C0 18.5104 1.17715 19.6875 2.625 19.6875H18.375C19.8229 19.6875 21 18.5104 21 17.0625V11.8125Z" fill="#007E4C"/>
</svg>
