<svg width="220" height="179" viewBox="0 0 220 179" fill="none" xmlns="http://www.w3.org/2000/svg">
<path d="M214.219 4.70906C214.185 4.56779 214.092 4.45282 213.951 4.41729C210.129 3.45332 155.072 -9.15958 111.424 52.1761C111.251 52.4199 110.87 52.4117 110.721 52.1521C107.495 46.5257 79.1934 1.08995 5.7587 0.00431155C5.57915 0.00165706 5.4332 0.0530807 5.38474 0.225993C3.68543 6.28946 -30.1117 132.467 95.3976 148.6C95.5975 148.626 95.7598 148.798 95.7598 148.999V178.362C95.7598 178.583 95.9389 178.762 96.1598 178.762H123.451C123.672 178.762 123.851 178.583 123.851 178.362V149.056C123.851 148.848 124.006 148.674 124.213 148.653C131.478 147.918 245.438 134.277 214.219 4.70906ZM95.3006 120.813C95.2831 121.039 95.1232 121.222 94.8988 121.191C89.2596 120.394 20.8401 109.074 27.7509 29.4147C27.7712 29.1805 27.9467 28.9756 28.181 28.9948C33.9574 29.4688 101.8 36.8075 95.3006 120.813ZM123.623 121.152C123.413 121.2 123.202 121.113 123.153 120.903C121.901 115.574 107.879 48.499 190.082 28.9624C190.333 28.9028 190.624 29.0368 190.667 29.291C191.705 35.4577 201.389 103.504 123.623 121.152Z" fill="#00A25A"/>
</svg>
