<svg width="285" height="55" viewBox="0 0 285 55" fill="none" xmlns="http://www.w3.org/2000/svg">
<g clip-path="url(#clip0_5272_20060)">
<path d="M41.2571 0.135742H13.0286C5.83309 0.135742 0 5.94827 0 13.1184V41.2475C0 48.4176 5.83309 54.2301 13.0286 54.2301H41.2571C48.4526 54.2301 54.2857 48.4176 54.2857 41.2475V13.1184C54.2857 5.94827 48.4526 0.135742 41.2571 0.135742Z" fill="url(#paint0_linear_5272_20060)"/>
<path d="M43.2859 13.6291C43.2728 13.5717 43.2311 13.5238 43.1738 13.5098C42.2304 13.2784 34.0537 11.6001 27.4923 21.0565C27.4215 21.1586 27.2624 21.1581 27.1997 21.0508C26.4065 19.6945 21.9571 13.0148 11.1478 12.8162C11.0741 12.8148 11.01 12.8509 10.9915 12.9222C10.5677 14.5511 5.8925 34.0945 24.826 36.6909C24.9069 36.702 24.9722 36.7714 24.9722 36.8528V41.3895C24.9722 41.4791 25.0451 41.5518 25.1351 41.5518H29.1491C29.239 41.5518 29.3119 41.4791 29.3119 41.3895V36.866C29.3119 36.7818 29.3645 36.7124 29.4485 36.7026C31.1437 36.5044 47.9728 34.013 43.2859 13.6291ZM24.9088 32.1306C24.9024 32.2228 24.8245 32.2952 24.733 32.28C23.3381 32.0482 13.4886 29.9705 14.4569 17.6516C14.4644 17.5568 14.5476 17.4759 14.6425 17.486C16.0608 17.6363 25.8214 19.1427 24.9088 32.1306ZM29.3768 32.2666C29.2904 32.2875 29.2009 32.2392 29.1829 32.1524C28.8994 30.785 27.2213 20.592 39.4153 17.5023C39.5176 17.4763 39.6382 17.5437 39.6531 17.6479C39.8756 19.2008 40.9007 29.4845 29.3768 32.2666Z" fill="white"/>
<path d="M79.3386 41.998C77.2486 41.998 75.2943 41.6194 73.4757 40.862C71.6843 40.1047 70.11 39.0634 68.7528 37.7381C67.3957 36.3857 66.3371 34.8305 65.5771 33.0725C64.8171 31.2873 64.4371 29.3805 64.4371 27.352C64.4371 25.3234 64.8036 23.4301 65.5364 21.6721C66.2964 19.8869 67.355 18.3317 68.7121 17.0064C70.0693 15.6541 71.6436 14.5992 73.435 13.8419C75.2264 13.0846 77.1671 12.7059 79.2571 12.7059C81.51 12.7059 83.6407 13.1387 85.6493 14.0042C87.6578 14.8697 89.3543 16.0733 90.7386 17.615L87.8071 20.4549C86.7757 19.2378 85.5 18.3047 83.98 17.6556C82.4871 16.9794 80.9128 16.6413 79.2571 16.6413C77.7643 16.6413 76.38 16.9118 75.1043 17.4527C73.8557 17.9936 72.7564 18.751 71.8064 19.7247C70.8564 20.6713 70.11 21.7938 69.5671 23.092C69.0514 24.3903 68.7936 25.8103 68.7936 27.352C68.7936 28.8666 69.0514 30.2866 69.5671 31.6119C70.11 32.9102 70.8564 34.0462 71.8064 35.0198C72.7836 35.9935 73.91 36.7509 75.1857 37.2918C76.4614 37.8328 77.8457 38.1032 79.3386 38.1032C81.0214 38.1032 82.5414 37.7516 83.8986 37.0484C85.2828 36.3452 86.4093 35.385 87.2778 34.1679C88.1464 32.9237 88.6757 31.5308 88.8657 29.9891H79.3793V26.2566H93.3443V27.7171C93.3443 29.7456 92.9914 31.6254 92.2857 33.3564C91.58 35.0875 90.5893 36.6021 89.3136 37.9004C88.065 39.1986 86.5857 40.2129 84.8757 40.9432C83.1657 41.6464 81.32 41.998 79.3386 41.998ZM97.336 41.5517V20.9012H101.407V23.5383C102.059 22.5646 102.86 21.8073 103.81 21.2664C104.787 20.6984 105.886 20.4144 107.107 20.4144C107.949 20.4414 108.641 20.5631 109.184 20.7795V24.4309C108.804 24.2686 108.41 24.1604 108.003 24.1063C107.596 24.0252 107.189 23.9846 106.782 23.9846C105.587 23.9846 104.529 24.3092 103.606 24.9583C102.683 25.5804 101.95 26.5 101.407 27.7171V41.5517H97.336ZM121.186 41.9169C119.15 41.9169 117.305 41.4436 115.649 40.4969C114.02 39.5503 112.717 38.2655 111.74 36.6427C110.79 35.0199 110.315 33.2077 110.315 31.2062C110.315 29.2318 110.777 27.4466 111.7 25.8509C112.622 24.228 113.871 22.9433 115.445 21.9966C117.02 21.0229 118.77 20.5361 120.697 20.5361C122.625 20.5361 124.335 21.0229 125.827 21.9966C127.32 22.9433 128.501 24.2415 129.37 25.8914C130.265 27.5143 130.713 29.3535 130.713 31.409V32.545H114.387C114.604 33.681 115.025 34.6953 115.649 35.5878C116.3 36.4804 117.115 37.1836 118.092 37.6975C119.096 38.2114 120.182 38.4684 121.349 38.4684C122.353 38.4684 123.317 38.3196 124.24 38.0221C125.19 37.6975 125.977 37.2377 126.601 36.6427L129.207 39.1986C127.985 40.1182 126.723 40.808 125.42 41.2678C124.145 41.7005 122.733 41.9169 121.186 41.9169ZM114.427 29.5022H126.682C126.52 28.4203 126.14 27.4737 125.542 26.6623C124.972 25.8238 124.253 25.1747 123.385 24.7149C122.543 24.228 121.62 23.9846 120.616 23.9846C119.585 23.9846 118.635 24.2145 117.766 24.6743C116.897 25.1341 116.165 25.7832 115.567 26.6217C114.997 27.4331 114.617 28.3933 114.427 29.5022ZM144.605 41.9169C142.57 41.9169 140.724 41.4436 139.068 40.4969C137.44 39.5503 136.137 38.2655 135.16 36.6427C134.21 35.0199 133.735 33.2077 133.735 31.2062C133.735 29.2318 134.196 27.4466 135.119 25.8509C136.042 24.228 137.29 22.9433 138.865 21.9966C140.439 21.0229 142.19 20.5361 144.117 20.5361C146.044 20.5361 147.754 21.0229 149.247 21.9966C150.74 22.9433 151.92 24.2415 152.789 25.8914C153.685 27.5143 154.132 29.3535 154.132 31.409V32.545H137.806C138.023 33.681 138.444 34.6953 139.068 35.5878C139.72 36.4804 140.534 37.1836 141.511 37.6975C142.515 38.2114 143.601 38.4684 144.768 38.4684C145.772 38.4684 146.736 38.3196 147.659 38.0221C148.609 37.6975 149.396 37.2377 150.02 36.6427L152.626 39.1986C151.405 40.1182 150.142 40.808 148.84 41.2678C147.564 41.7005 146.152 41.9169 144.605 41.9169ZM137.847 29.5022H150.102C149.939 28.4203 149.559 27.4737 148.962 26.6623C148.392 25.8238 147.672 25.1747 146.804 24.7149C145.962 24.228 145.04 23.9846 144.035 23.9846C143.004 23.9846 142.054 24.2145 141.185 24.6743C140.317 25.1341 139.584 25.7832 138.987 26.6217C138.417 27.4331 138.037 28.3933 137.847 29.5022ZM158.01 41.5517V20.9012H162.081V23.0109C163.682 21.334 165.759 20.4955 168.31 20.4955C169.912 20.4955 171.31 20.8336 172.504 21.5098C173.725 22.186 174.675 23.1326 175.354 24.3497C176.06 25.5669 176.412 26.9733 176.412 28.5691V41.5517H172.341V29.2588C172.341 27.636 171.88 26.3647 170.957 25.4451C170.061 24.4985 168.799 24.0252 167.17 24.0252C166.085 24.0252 165.107 24.2551 164.239 24.7149C163.37 25.1747 162.651 25.8373 162.081 26.7028V41.5517H158.01ZM195.32 41.998C193.203 41.998 191.235 41.6329 189.416 40.9026C187.625 40.1453 186.037 39.104 184.653 37.7787C183.296 36.4263 182.237 34.8711 181.477 33.113C180.744 31.3279 180.378 29.4076 180.378 27.352C180.378 25.2964 180.744 23.3896 181.477 21.6315C182.237 19.8464 183.296 18.2912 184.653 16.9658C186.037 15.6135 187.639 14.5722 189.456 13.8419C191.276 13.0846 193.23 12.7059 195.32 12.7059C196.813 12.7059 198.265 12.9088 199.676 13.3145C201.115 13.6931 202.431 14.2476 203.626 14.9779C204.847 15.7082 205.906 16.5872 206.801 17.615L203.951 20.5361C202.893 19.2649 201.604 18.3047 200.084 17.6556C198.564 16.9794 196.976 16.6413 195.32 16.6413C193.8 16.6413 192.389 16.9118 191.086 17.4527C189.81 17.9936 188.697 18.751 187.747 19.7247C186.797 20.6713 186.051 21.7938 185.508 23.092C184.992 24.3903 184.734 25.8103 184.734 27.352C184.734 28.8666 184.992 30.2731 185.508 31.5713C186.051 32.8696 186.811 34.0056 187.788 34.9793C188.765 35.953 189.905 36.7103 191.208 37.2512C192.511 37.7922 193.922 38.0627 195.442 38.0627C197.098 38.0627 198.659 37.7381 200.124 37.089C201.617 36.4128 202.879 35.4661 203.911 34.249L206.72 37.089C205.77 38.0897 204.684 38.9687 203.463 39.7261C202.269 40.4563 200.966 41.0243 199.554 41.43C198.17 41.8087 196.759 41.998 195.32 41.998ZM210.413 41.5517V20.9012H214.485V41.5517H210.413ZM212.449 17.5744C211.77 17.5744 211.187 17.331 210.698 16.8441C210.21 16.3302 209.965 15.7352 209.965 15.059C209.965 14.3558 210.21 13.7743 210.698 13.3145C211.187 12.8276 211.77 12.5842 212.449 12.5842C213.155 12.5842 213.752 12.8276 214.24 13.3145C214.729 13.7743 214.973 14.3558 214.973 15.059C214.973 15.7352 214.729 16.3302 214.24 16.8441C213.752 17.331 213.155 17.5744 212.449 17.5744ZM219.28 41.5517V20.9012H223.352V23.5383C224.003 22.5646 224.804 21.8073 225.754 21.2664C226.731 20.6984 227.83 20.4144 229.052 20.4144C229.893 20.4414 230.585 20.5631 231.128 20.7795V24.4309C230.748 24.2686 230.355 24.1604 229.947 24.1063C229.54 24.0252 229.133 23.9846 228.726 23.9846C227.532 23.9846 226.473 24.3092 225.55 24.9583C224.627 25.5804 223.895 26.5 223.352 27.7171V41.5517H219.28ZM242.927 41.9169C240.945 41.9169 239.14 41.4436 237.512 40.4969C235.883 39.5503 234.594 38.2655 233.644 36.6427C232.721 35.0199 232.26 33.2077 232.26 31.2062C232.26 29.2047 232.735 27.4061 233.685 25.8103C234.635 24.1874 235.91 22.9027 237.512 21.9561C239.14 20.9824 240.945 20.4955 242.927 20.4955C244.501 20.4955 246.008 20.793 247.446 21.3881C248.912 21.9831 250.174 22.8216 251.233 23.9035L248.708 26.7028C247.921 25.8373 247.039 25.1882 246.062 24.7554C245.085 24.3227 244.067 24.1063 243.008 24.1063C241.76 24.1063 240.62 24.4173 239.588 25.0394C238.584 25.6615 237.783 26.5135 237.186 27.5954C236.589 28.6773 236.29 29.8809 236.29 31.2062C236.29 32.5315 236.589 33.7351 237.186 34.817C237.783 35.8989 238.598 36.7644 239.629 37.4135C240.66 38.0356 241.814 38.3467 243.09 38.3467C244.148 38.3467 245.139 38.1438 246.062 37.7381C246.985 37.3053 247.853 36.6833 248.668 35.8718L251.151 38.4684C250.065 39.5773 248.803 40.4293 247.365 41.0243C245.953 41.6194 244.474 41.9169 242.927 41.9169ZM254.428 41.5517V13.1522L258.499 12.3813V41.5517H254.428ZM273.228 41.9169C271.193 41.9169 269.347 41.4436 267.691 40.4969C266.063 39.5503 264.76 38.2655 263.783 36.6427C262.833 35.0199 262.358 33.2077 262.358 31.2062C262.358 29.2318 262.819 27.4466 263.742 25.8509C264.665 24.228 265.913 22.9433 267.488 21.9966C269.062 21.0229 270.813 20.5361 272.74 20.5361C274.667 20.5361 276.377 21.0229 277.87 21.9966C279.363 22.9433 280.543 24.2415 281.412 25.8914C282.308 27.5143 282.756 29.3535 282.756 31.409V32.545H266.429C266.646 33.681 267.067 34.6953 267.691 35.5878C268.343 36.4804 269.157 37.1836 270.134 37.6975C271.138 38.2114 272.224 38.4684 273.391 38.4684C274.396 38.4684 275.359 38.3196 276.282 38.0221C277.232 37.6975 278.019 37.2377 278.643 36.6427L281.249 39.1986C280.028 40.1182 278.766 40.808 277.463 41.2678C276.187 41.7005 274.776 41.9169 273.228 41.9169ZM266.47 29.5022H278.725C278.562 28.4203 278.182 27.4737 277.585 26.6623C277.015 25.8238 276.296 25.1747 275.427 24.7149C274.586 24.228 273.663 23.9846 272.658 23.9846C271.627 23.9846 270.677 24.2145 269.808 24.6743C268.94 25.1341 268.207 25.7832 267.61 26.6217C267.04 27.4331 266.66 28.3933 266.47 29.5022Z" fill="#005435"/>
</g>
<defs>
<linearGradient id="paint0_linear_5272_20060" x1="27.6952" y1="0.135745" x2="26.5983" y2="54.2303" gradientUnits="userSpaceOnUse">
<stop stop-color="#00924C"/>
<stop offset="1" stop-color="#005435"/>
</linearGradient>
<clipPath id="clip0_5272_20060">
<rect width="285" height="54.0944" fill="white" transform="translate(0 0.135742)"/>
</clipPath>
</defs>
</svg>
