<svg width="1440" height="731" viewBox="0 0 1440 731" fill="none" xmlns="http://www.w3.org/2000/svg">
<path d="M221.172 166.565C221.239 166.436 221.239 166.282 221.156 166.163C218.675 162.614 179.868 109.475 94.7643 130.357C94.4738 130.428 94.1855 130.199 94.2436 129.906C95.5837 123.135 105.695 61.3386 41.5904 4.33818C41.4562 4.21886 41.3388 4.14486 41.189 4.24382C35.8966 7.73907 -90.7057 93.1617 7.70291 202.912C7.83743 203.062 7.84822 203.298 7.71652 203.45L-14.6308 229.331C-14.7752 229.499 -14.7567 229.751 -14.5895 229.895L9.47806 250.677C9.64525 250.821 9.89784 250.803 10.0422 250.636L32.3483 224.803C32.4843 224.645 32.6892 224.597 32.8593 224.716C39.0481 229.074 150.065 304.604 221.172 166.565ZM28.6037 178.437C28.4428 178.596 28.2002 178.628 28.0507 178.458C23.9695 173.804 -28.0688 111.767 38.6905 46.8315C38.859 46.6676 39.1264 46.6276 39.2914 46.7949C43.7047 51.2685 98.3176 109.341 28.6037 178.437ZM53.2151 200.136C53.025 200.034 52.9244 199.827 53.0238 199.636C55.7754 194.349 94.3223 124.247 181.635 169.635C181.863 169.754 181.998 170.044 181.864 170.264C178.369 176.048 135.234 243.83 53.2151 200.136Z" fill="#005435" fill-opacity="0.08"/>
<path d="M1393.87 472.779C1393.77 472.674 1393.64 472.621 1393.5 472.661C1389.7 473.737 1335.72 490.342 1328.58 565.285C1328.56 565.582 1328.22 565.766 1327.96 565.615C1322.36 562.355 1275.13 537.158 1210.99 572.935C1210.83 573.023 1210.73 573.14 1210.78 573.314C1212.34 579.415 1246.16 705.587 1362.92 656.804C1363.1 656.726 1363.33 656.793 1363.43 656.968L1378.11 682.397C1378.22 682.588 1378.47 682.653 1378.66 682.543L1402.29 668.897C1402.48 668.787 1402.55 668.542 1402.44 668.351L1387.79 642.971C1387.68 642.791 1387.73 642.564 1387.9 642.442C1393.82 638.172 1485.69 569.379 1393.87 472.779ZM1348.94 632.788C1349.04 632.992 1348.99 633.231 1348.78 633.316C1343.5 635.445 1278.59 659.852 1244.74 587.409C1244.64 587.196 1244.69 586.931 1244.9 586.831C1250.14 584.353 1312.57 556.787 1348.94 632.788ZM1373.64 618.92C1373.48 619.067 1373.25 619.096 1373.11 618.939C1369.36 614.95 1323.68 563.873 1385.1 505.852C1385.28 505.675 1385.6 505.645 1385.77 505.844C1389.75 510.666 1432.16 564.753 1373.64 618.92Z" fill="#005435" fill-opacity="0.08"/>
</svg>
