<svg width="55" height="55" viewBox="0 0 55 55" fill="none" xmlns="http://www.w3.org/2000/svg">
<path d="M41.2571 0H13.0286C5.83309 0 0 5.81253 0 12.9827V41.1117C0 48.2819 5.83309 54.0944 13.0286 54.0944H41.2571C48.4526 54.0944 54.2857 48.2819 54.2857 41.1117V12.9827C54.2857 5.81253 48.4526 0 41.2571 0Z" fill="url(#paint0_linear_1_470)"/>
<path d="M43.286 13.4934C43.2729 13.436 43.2312 13.3881 43.1739 13.374C42.2305 13.1426 34.0538 11.4643 27.4925 20.9208C27.4216 21.0228 27.2625 21.0223 27.1998 20.9151C26.4067 19.5587 21.9572 12.8791 11.148 12.6805C11.0742 12.6791 11.0101 12.7152 10.9916 12.7864C10.5678 14.4154 5.89262 33.9587 24.8261 36.5552C24.907 36.5663 24.9723 36.6356 24.9723 36.717V41.2538C24.9723 41.3434 25.0452 41.4161 25.1352 41.4161H29.1492C29.2391 41.4161 29.3121 41.3434 29.3121 41.2538V36.7302C29.3121 36.646 29.3646 36.5767 29.4486 36.5668C31.1439 36.3686 47.9729 33.8773 43.286 13.4934ZM24.909 31.9949C24.9025 32.0871 24.8247 32.1595 24.7331 32.1443C23.3382 31.9124 13.4887 29.8348 14.457 17.5159C14.4645 17.4211 14.5477 17.3402 14.6426 17.3502C16.0609 17.5006 25.8215 19.007 24.909 31.9949ZM29.3769 32.1309C29.2905 32.1517 29.201 32.1035 29.183 32.0167C28.8996 30.6493 27.2214 20.4563 39.4154 17.3666C39.5178 17.3406 39.6383 17.408 39.6532 17.5122C39.8757 19.065 40.9008 29.3488 29.3769 32.1309Z" fill="white"/>
<defs>
<linearGradient id="paint0_linear_1_470" x1="27.6952" y1="2.66753e-06" x2="26.5983" y2="54.0946" gradientUnits="userSpaceOnUse">
<stop stop-color="#00924C"/>
<stop offset="1" stop-color="#005435"/>
</linearGradient>
</defs>
</svg>
