<svg width="37" height="41" viewBox="0 0 37 41" fill="none" xmlns="http://www.w3.org/2000/svg">
<g opacity="0.87">
<path d="M11.1722 16.7413L10.5372 16.5425L1.41843 13.681C1.21133 13.6162 1 13.7714 1 13.9904V35.6628C1 35.7989 1.08453 35.9211 1.21238 35.9679L12.2046 39.9805C12.2701 40.005 12.3419 40.006 12.4085 39.9858L24.2544 36.3272C24.3168 36.308 24.3844 36.308 24.4467 36.3282L35.5805 39.8838C35.7887 39.9497 36 39.7945 36 39.5745V17.6118C36 17.4715 35.9102 17.3461 35.776 17.3036L26.9362 14.4432" stroke="#003B22" stroke-width="2" stroke-miterlimit="10"/>
<path d="M12.4899 19.0871L12.304 39.9846" stroke="#003B22" stroke-width="2" stroke-miterlimit="10"/>
<path d="M24.4478 36.3272L24.3147 19.0383" stroke="#003B22" stroke-width="2" stroke-miterlimit="10"/>
<path d="M18.5898 27.6907C18.5126 27.8034 18.3499 27.8087 18.2664 27.7003C16.99 26.0314 9.29455 15.4105 9.08322 11.0513C8.90359 7.33843 10.0617 5.58882 10.5033 5.06372C10.6227 4.92235 10.739 4.77992 10.851 4.63217C11.6255 3.62024 14.8778 -0.0139805 20.8119 1.27219C27.68 2.76031 27.8913 10.201 27.8913 10.201C27.8913 10.201 28.2083 12.6457 25.7781 16.6849C23.6035 20.2979 19.4425 26.4375 18.5898 27.6907Z" stroke="#003B22" stroke-width="2" stroke-miterlimit="10"/>
<path d="M18.4345 15.0905C21.0313 15.0905 23.1365 12.9728 23.1365 10.3604C23.1365 7.74803 21.0313 5.63028 18.4345 5.63028C15.8376 5.63028 13.7324 7.74803 13.7324 10.3604C13.7324 12.9728 15.8376 15.0905 18.4345 15.0905Z" stroke="#003B22" stroke-width="2" stroke-miterlimit="10"/>
</g>
</svg>
