<svg width="29" height="28" viewBox="0 0 29 28" fill="none" xmlns="http://www.w3.org/2000/svg">
<path d="M10.4219 2.8H18.5781C18.8273 2.8 19.0312 3.01 19.0312 3.26667V5.6H9.96875V3.26667C9.96875 3.01 10.1727 2.8 10.4219 2.8ZM7.25 3.26667V5.6H3.625C1.62559 5.6 0 7.27417 0 9.33333V14.9333H10.875H18.125H29V9.33333C29 7.27417 27.3744 5.6 25.375 5.6H21.75V3.26667C21.75 1.46417 20.3283 0 18.5781 0H10.4219C8.67168 0 7.25 1.46417 7.25 3.26667ZM29 16.8H18.125V18.6667C18.125 19.6992 17.315 20.5333 16.3125 20.5333H12.6875C11.685 20.5333 10.875 19.6992 10.875 18.6667V16.8H0V24.2667C0 26.3258 1.62559 28 3.625 28H25.375C27.3744 28 29 26.3258 29 24.2667V16.8Z" fill="#007E4C"/>
</svg>
