<svg width="32" height="49" viewBox="0 0 32 49" fill="none" xmlns="http://www.w3.org/2000/svg">
<g id="Group 1000001552">
<path id="Union" fill-rule="evenodd" clip-rule="evenodd" d="M16.6935 27.2473C16.6959 27.2343 16.6983 27.2212 16.7007 27.2081C16.7176 27.1184 16.7364 27.0285 16.7572 26.9385C17.1122 25.401 18.0239 23.8509 18.8988 23.2653C19.3895 22.9368 19.8686 22.9117 20.2315 23.3623C20.3149 23.4658 20.3863 23.5784 20.4471 23.6983C20.9949 24.7794 20.6734 26.4487 20.4289 27.3592C20.4252 27.3731 20.4214 27.3869 20.4177 27.4004C20.4226 27.3871 20.4276 27.3737 20.4326 27.3604C20.9178 26.0658 21.8316 24.9492 22.7063 24.4482C23.4199 24.0395 24.1075 24.0405 24.515 24.689C24.6041 24.8307 24.6772 24.9847 24.7363 25.1474C25.1143 26.1875 24.9251 27.5878 24.7353 28.4755C24.7301 28.5 24.7248 28.5241 24.7196 28.5479C24.7284 28.5248 24.7374 28.5019 24.7466 28.4789C25.1696 27.4286 26.0519 26.4824 26.9362 26.0496C27.814 25.62 28.6937 25.6964 29.1281 26.679C30.1166 28.9153 29.4576 36.5439 29.1281 37.2928C28.7986 38.0417 26.1626 42.268 26.1626 42.268C26.1626 42.268 26.3171 43.259 26.4017 44.2533C26.4021 44.2584 26.4025 44.2634 26.4029 44.2685C26.4389 44.6947 26.4618 45.1207 26.4539 45.4685C26.4423 45.9808 26.364 46.3235 26.1626 46.2482C25.5036 46.002 14.3004 46.002 13.9709 46.2482C13.9127 46.2918 13.875 46.2266 13.8525 46.0897C13.7951 45.7411 13.836 44.9275 13.8848 44.2623C13.8858 44.2491 13.8867 44.2359 13.8877 44.2229C13.9273 43.6907 13.9709 43.2631 13.9709 43.2631C13.9709 43.2631 6.39233 31.9006 6.39233 31.3226C6.39233 30.7447 7.24904 27.7405 9.35787 29.3326C9.35787 29.3326 9.96201 30.0466 10.6529 30.844C10.8541 31.0761 11.0626 31.3153 11.2657 31.546C11.8932 32.2587 12.469 32.8901 12.6165 32.981C12.6403 32.9956 12.6529 32.9963 12.6529 32.981V30.9923V30.0948V18.0554C12.6529 16.1507 15.9479 12.8339 16.607 18.0554C16.7984 19.5722 16.8786 21.0474 16.8961 22.3772C16.9214 24.3101 16.8142 25.9358 16.7232 26.9354C16.7144 27.0321 16.7058 27.1229 16.6974 27.2076C16.6961 27.221 16.6948 27.2343 16.6935 27.2473ZM10.6529 27.8043V18.0554C10.6529 17.0707 11.0491 16.1317 11.495 15.4371C11.9432 14.7391 12.6376 13.9822 13.5507 13.5644C14.0279 13.3461 14.6324 13.1919 15.3055 13.273C16.0037 13.3571 16.6217 13.6768 17.111 14.1564C18.0058 15.0333 18.41 16.3693 18.5912 17.805C18.7351 18.9448 18.8193 20.0602 18.8625 21.1124C19.3048 21.0001 19.8224 20.9739 20.3623 21.1334C20.9737 21.3141 21.4477 21.6838 21.7892 22.1078C21.8976 22.2425 21.9943 22.3812 22.0804 22.5227C22.5288 22.316 23.0449 22.1684 23.607 22.1669C24.6764 22.1641 25.6246 22.6958 26.2084 23.6248C26.3018 23.7734 26.3841 23.9254 26.4563 24.0792C27.0707 23.8439 27.8155 23.7063 28.6026 23.8758C29.71 24.1143 30.5179 24.8763 30.9574 25.8704C31.3565 26.7734 31.5131 27.9743 31.5867 29.0374C31.6652 30.1723 31.6638 31.4339 31.6211 32.6159C31.5782 33.8019 31.4925 34.9434 31.3945 35.8483C31.3456 36.2993 31.2919 36.7083 31.2358 37.0435C31.1949 37.2882 31.117 37.7385 30.9587 38.0983C30.82 38.4136 30.5258 38.9281 30.2519 39.3962C29.9499 39.9124 29.5826 40.5222 29.2301 41.1012C28.8768 41.6816 28.5344 42.2375 28.2806 42.6479C28.2681 42.668 28.2559 42.6878 28.2439 42.7073C28.2966 43.1128 28.3599 43.6506 28.4033 44.1904C28.4457 44.7193 28.4792 45.3637 28.4333 45.9004C28.4144 46.1216 28.3659 46.5824 28.148 47.0274C28.0347 47.2588 27.7745 47.6969 27.2424 47.9924C26.7082 48.2892 26.1473 48.3091 25.6836 48.1909C25.6127 48.1831 25.4997 48.1736 25.3385 48.1635C25.0029 48.1426 24.5369 48.1241 23.9723 48.109C22.8477 48.0788 21.3942 48.0635 19.9432 48.0635C18.4918 48.0635 17.0598 48.0788 15.9778 48.1089C15.4334 48.1241 14.9974 48.1424 14.6982 48.1628C14.6238 48.1679 14.5651 48.1726 14.5201 48.1767C14.4174 48.2073 14.3057 48.2317 14.1852 48.2465C13.6819 48.3081 13.2069 48.178 12.8309 47.9349C12.2294 47.5461 12.031 46.9738 11.9891 46.8527L11.9872 46.8474C11.8652 46.4964 11.8435 46.1444 11.8352 46.0006C11.813 45.6144 11.8291 45.1397 11.8502 44.7421C11.8681 44.4045 11.8929 44.0661 11.9158 43.7848C11.7128 43.4792 11.4398 43.0677 11.1186 42.582C10.4065 41.5053 9.45616 40.0623 8.50508 38.6001C7.55566 37.1404 6.59875 35.6512 5.87646 34.4857C5.51702 33.9057 5.2045 33.3878 4.97758 32.987C4.86602 32.79 4.75988 32.5945 4.67637 32.4215C4.63573 32.3374 4.58504 32.227 4.54016 32.1066C4.53949 32.1048 4.53861 32.1025 4.53753 32.0997C4.51356 32.0367 4.39233 31.7182 4.39233 31.3226C4.39233 30.8662 4.52002 30.3346 4.66277 29.9086C4.81945 29.441 5.08029 28.8416 5.49605 28.2983C5.90734 27.7609 6.60766 27.107 7.65583 26.9213C8.74489 26.7283 9.74612 27.1197 10.5629 27.7364L10.6529 27.8043ZM25.7547 48.2004C25.754 48.2006 25.7432 48.1992 25.7245 48.1957C25.7461 48.1985 25.7555 48.2003 25.7547 48.2004Z" fill="#005435"/>
<path id="Vector 165" d="M5.62183 20.4705C5.62183 12.7676 9.20171 8.76861 12.3622 8.37658C14.6147 8.09717 21.0283 8.37703 21.0283 19.5076" stroke="#005435" stroke-width="2"/>
<path id="Vector 166" d="M1 20.6433C1 8.19242 6.72781 1.72847 11.7846 1.0948C15.3887 0.643155 25.6504 1.09552 25.6504 19.0869" stroke="#005435" stroke-width="2"/>
</g>
</svg>
